<?xml version="1.0" standalone="no"?>
<!DOCTYPE svg PUBLIC "-//W3C//DTD SVG 20010904//EN"
 "http://www.w3.org/TR/2001/REC-SVG-20010904/DTD/svg10.dtd">
<svg version="1.0" xmlns="http://www.w3.org/2000/svg"
 width="700.000000pt" height="700.000000pt" viewBox="0 0 700.000000 700.000000"
 preserveAspectRatio="xMidYMid meet">
<metadata>
Created by potrace 1.14, written by Peter Selinger 2001-2017
</metadata>
<g transform="translate(0.000000,700.000000) scale(0.100000,-0.100000)"
fill="#000000" stroke="none">
<path d="M0 3500 l0 -3500 3500 0 3500 0 0 3500 0 3500 -3500 0 -3500 0 0
-3500z m2616 1019 c187 -26 373 -104 510 -213 134 -107 136 -90 -29 -243
l-142 -131 -30 27 c-221 201 -534 249 -790 122 -103 -52 -167 -107 -227 -200
-75 -115 -93 -186 -93 -361 1 -130 3 -152 27 -217 32 -89 104 -200 166 -253
63 -55 191 -117 277 -135 181 -38 408 -2 520 83 47 35 145 147 145 164 0 4
-46 8 -102 8 -119 0 -165 16 -215 73 -40 45 -57 97 -51 157 10 101 76 171 178
190 34 6 221 9 470 8 l415 -3 3 -425 c2 -279 -1 -442 -8 -476 -42 -198 -316
-227 -400 -42 -15 33 -20 66 -20 143 l-1 100 -22 -30 c-43 -59 -123 -138 -183
-181 -148 -106 -299 -151 -535 -161 -277 -11 -484 41 -686 172 -190 124 -329
313 -400 542 -25 83 -27 99 -27 288 0 190 1 205 27 289 104 335 348 572 694
671 48 14 115 29 148 34 87 12 291 13 381 0z m2382 -488 c276 -80 464 -257
544 -511 20 -65 23 -96 23 -225 0 -170 -13 -233 -70 -350 -95 -191 -276 -335
-500 -397 -116 -32 -374 -32 -489 0 -220 61 -408 210 -500 396 -59 119 -71
180 -70 356 0 140 3 163 27 235 38 115 91 199 182 290 116 116 269 195 437
224 91 17 332 6 416 -18z"/>
<path d="M4662 3695 c-115 -26 -208 -102 -260 -213 -25 -53 -27 -67 -27 -192
0 -125 2 -139 27 -192 31 -67 96 -140 154 -174 23 -14 75 -31 115 -40 137 -29
266 12 358 111 77 85 96 143 96 295 0 162 -20 217 -109 306 -95 94 -219 129
-354 99z"/>
</g>
</svg>
