<svg width="168" height="28" viewBox="0 0 168 28" fill="none" xmlns="http://www.w3.org/2000/svg">
<path d="M161.679 27.5792V8.72583H167.146V27.5792H161.679Z" fill="white"/>
<path d="M164.413 6.09757C163.408 6.09757 162.591 5.80554 161.96 5.22148C161.329 4.63742 161.014 3.91319 161.014 3.04878C161.014 2.18438 161.329 1.46015 161.96 0.876088C162.591 0.29203 163.408 0 164.413 0C165.417 0 166.235 0.280349 166.866 0.841045C167.497 1.37838 167.812 2.07925 167.812 2.94365C167.812 3.85478 167.497 4.61406 166.866 5.22148C166.258 5.80554 165.441 6.09757 164.413 6.09757Z" fill="white"/>
<path d="M149.07 8.44497C150.565 8.44497 151.885 8.74868 153.03 9.3561C154.198 9.94016 155.109 10.8513 155.763 12.0895C156.441 13.3043 156.78 14.8696 156.78 16.7853V27.5787H151.313V17.6264C151.313 16.1078 150.997 14.9864 150.367 14.2622C149.736 13.538 148.848 13.1758 147.703 13.1758C146.909 13.1758 146.196 13.3627 145.566 13.7365C144.935 14.087 144.444 14.6243 144.094 15.3485C143.743 16.0728 143.568 16.9956 143.568 18.117V27.5787H138.101V17.6264C138.101 16.1078 137.786 14.9864 137.155 14.2622C136.548 13.538 135.672 13.1758 134.527 13.1758C133.733 13.1758 133.02 13.3627 132.389 13.7365C131.759 14.087 131.268 14.6243 130.918 15.3485C130.567 16.0728 130.392 16.9956 130.392 18.117V27.5787H124.925V8.72532H130.147V10.9006C130.654 10.3168 131.249 9.83697 131.934 9.46123C133.149 8.78373 134.527 8.44497 136.069 8.44497C137.798 8.44497 139.305 8.88886 140.59 9.77662C141.273 10.2284 141.836 10.8078 142.277 11.5149C142.82 10.8252 143.484 10.2341 144.269 9.74158C145.671 8.87717 147.271 8.44497 149.07 8.44497Z" fill="white"/>
<path fill-rule="evenodd" clip-rule="evenodd" d="M114.861 25.2359V27.5787H119.977V16.8204C119.977 13.9468 119.183 11.8325 117.594 10.4775C116.006 9.12248 113.774 8.44497 110.901 8.44497C109.406 8.44497 107.934 8.64355 106.485 9.04071C105.037 9.43787 103.799 9.99856 102.771 10.7228L104.733 14.5425C105.411 14.0052 106.228 13.5847 107.186 13.281C108.168 12.9539 109.16 12.7904 110.165 12.7904C111.637 12.7904 112.723 13.1174 113.424 13.7716C114.148 14.4257 114.51 15.3369 114.51 16.505H110.165C108.249 16.505 106.696 16.7503 105.504 17.2409C104.313 17.7081 103.437 18.3623 102.876 19.2033C102.339 20.0444 102.07 21.0256 102.07 22.147C102.07 23.2216 102.35 24.1912 102.911 25.0556C103.472 25.92 104.278 26.6092 105.329 27.1231C106.38 27.6138 107.642 27.8591 109.114 27.8591C110.772 27.8591 112.127 27.5437 113.179 26.9129C113.889 26.487 114.449 25.928 114.861 25.2359ZM114.51 21.6213V19.6939H110.761C109.476 19.6939 108.588 19.9042 108.097 20.3247C107.63 20.7452 107.397 21.2709 107.397 21.9017C107.397 22.6025 107.665 23.1632 108.203 23.5837C108.763 23.9809 109.523 24.1795 110.48 24.1795C111.392 24.1795 112.209 23.9692 112.933 23.5487C113.658 23.1048 114.183 22.4624 114.51 21.6213Z" fill="white"/>
<path d="M90.5266 8.44497C92.0218 8.44497 93.3535 8.74868 94.5216 9.3561C95.7131 9.94016 96.6476 10.8513 97.3251 12.0895C98.0026 13.3043 98.3413 14.8696 98.3413 16.7853V27.5787H92.8745V17.6264C92.8745 16.1078 92.5358 14.9864 91.8583 14.2622C91.2041 13.538 90.2696 13.1758 89.0548 13.1758C88.1904 13.1758 87.4078 13.3627 86.7069 13.7365C86.0294 14.087 85.4921 14.636 85.0949 15.3836C84.7211 16.1312 84.5342 17.089 84.5342 18.2571V27.5787H79.0674V8.72532H84.2889V10.9647C84.8298 10.362 85.4722 9.86081 86.2163 9.46123C87.4779 8.78373 88.9146 8.44497 90.5266 8.44497Z" fill="white"/>
<path d="M59.5231 27.229C61.322 27.743 63.2027 28 65.1651 28C67.5014 28 69.4287 27.6496 70.9473 26.9487C72.4892 26.2478 73.6456 25.325 74.4166 24.1803C75.1876 23.0355 75.573 21.7739 75.573 20.3956C75.573 19.1106 75.3044 18.0477 74.767 17.2066C74.2531 16.3656 73.5756 15.6881 72.7345 15.1741C71.8935 14.6601 70.959 14.2513 69.931 13.9476C68.9265 13.6439 67.9102 13.3752 66.8823 13.1416C65.8777 12.9079 64.9549 12.6743 64.1138 12.4407C63.2728 12.2071 62.5953 11.9034 62.0813 11.5296C61.5673 11.1324 61.3103 10.6184 61.3103 9.98765C61.3103 9.45032 61.4622 8.98307 61.7659 8.58591C62.0696 8.16539 62.5719 7.82664 63.2728 7.56965C63.9736 7.31267 64.8731 7.18418 65.9711 7.18418C67.0692 7.18418 68.1905 7.34771 69.3353 7.67478C70.4801 7.97849 71.6248 8.45742 72.7696 9.11157L74.5217 4.80122C73.377 4.07699 72.057 3.53965 70.5618 3.18922C69.0666 2.81542 67.5481 2.62852 66.0062 2.62852C63.6933 2.62852 61.7659 2.97896 60.224 3.67983C58.7054 4.35733 57.5607 5.28014 56.7897 6.44826C56.0421 7.59301 55.6683 8.86626 55.6683 10.268C55.6683 11.5763 55.9253 12.651 56.4393 13.492C56.9766 14.333 57.6658 15.0106 58.5069 15.5245C59.3479 16.0385 60.2707 16.459 61.2753 16.7861C62.3032 17.1132 63.3195 17.3935 64.3241 17.6271C65.352 17.8374 66.2865 18.071 67.1276 18.328C67.9686 18.5616 68.6461 18.877 69.1601 19.2742C69.6741 19.648 69.931 20.1619 69.931 20.8161C69.931 21.3301 69.7675 21.7856 69.4404 22.1828C69.1134 22.5799 68.5994 22.8953 67.8985 23.129C67.221 23.3392 66.3216 23.4443 65.2002 23.4443C63.7283 23.4443 62.2682 23.2107 60.8197 22.7435C59.3946 22.2529 58.1564 21.6338 57.1051 20.8862L55.1777 25.1615C56.2758 26.0025 57.7242 26.6917 59.5231 27.229Z" fill="white"/>
<path fill-rule="evenodd" clip-rule="evenodd" d="M8.02496 26.974C9.66032 27.5814 11.4475 27.8851 13.3866 27.8851C15.1388 27.8851 17.0937 27.6582 18.8593 26.974C21.1052 26.0093 22.4799 24.5331 23.4529 23.1723V25.0872C23.4529 26.5825 24.665 27.7946 26.1603 27.7946C27.6555 27.7946 28.8677 26.5825 28.8677 25.0872V14.296H18.0968C16.6016 14.296 15.3894 15.5082 15.3894 17.0035C15.3894 18.4987 16.6016 19.7109 18.0968 19.7109H20.1054C19.0926 21.3774 18.0339 22.1503 16.961 22.5235C15.9097 22.8739 14.8234 23.0491 13.702 23.0491C12.5339 23.0491 11.4592 22.8623 10.478 22.4885C9.52014 22.1147 8.6791 21.5773 7.95486 20.8764C7.254 20.1522 6.70499 19.3112 6.30782 18.3533C5.93403 17.3955 5.74713 16.3442 5.74713 15.1994C5.74713 14.0313 5.93403 12.9683 6.30782 12.0105C6.70499 11.0526 7.254 10.2232 7.95486 9.52237C8.6791 8.8215 9.53182 8.28416 10.513 7.91037C11.4943 7.53657 12.5806 7.34967 13.7721 7.34967C15.0103 7.34967 16.155 7.5833 17.2063 8.05054C18.2577 8.49442 19.2272 9.18361 20.115 10.1181L23.7595 6.75393C22.568 5.37556 21.0962 4.32425 19.344 3.60002C17.6152 2.87579 15.6644 2.51367 13.4917 2.51367C11.5293 2.51367 9.7304 2.82906 8.09504 3.45985C6.45968 4.06727 5.03458 4.94335 3.81974 6.0881C2.6049 7.23286 1.65872 8.57619 0.981216 10.1181C0.327072 11.66 0 13.3538 0 15.1994C0 17.045 0.327072 18.7388 0.981216 20.2807C1.65872 21.8226 2.59322 23.166 3.78469 24.3107C4.99953 25.4555 6.41296 26.3432 8.02496 26.974ZM37.3656 26.5975C38.9309 27.4386 40.7181 27.8591 42.7272 27.8591C44.713 27.8591 46.4886 27.4386 48.0538 26.5975C49.6191 25.7565 50.8456 24.6117 51.7334 23.1633C52.6212 21.6915 53.065 20.021 53.065 18.1521C53.065 16.2364 52.6212 14.5543 51.7334 13.1058C50.8456 11.6573 49.6191 10.5243 48.0538 9.70659C46.4886 8.86555 44.713 8.44502 42.7272 8.44502C40.7181 8.44502 38.9309 8.86555 37.3656 9.70659C35.8237 10.5243 34.5971 11.669 33.686 13.1408C32.7982 14.5893 32.3543 16.2597 32.3543 18.1521C32.3543 20.021 32.7982 21.6915 33.686 23.1633C34.5971 24.6117 35.8237 25.7565 37.3656 26.5975ZM45.1803 22.7428C44.456 23.1633 43.6383 23.3735 42.7272 23.3735C41.8161 23.3735 40.9984 23.1633 40.2742 22.7428C39.5499 22.3222 38.9659 21.7265 38.522 20.9555C38.1015 20.1612 37.8912 19.2267 37.8912 18.1521C37.8912 17.054 38.1015 16.1195 38.522 15.3486C38.9659 14.5776 39.5499 13.9819 40.2742 13.5614C40.9984 13.1408 41.8161 12.9306 42.7272 12.9306C43.6383 12.9306 44.456 13.1408 45.1803 13.5614C45.9045 13.9819 46.4769 14.5776 46.8974 15.3486C47.3179 16.1195 47.5282 17.054 47.5282 18.1521C47.5282 19.2267 47.3179 20.1612 46.8974 20.9555C46.4769 21.7265 45.9045 22.3222 45.1803 22.7428Z" fill="url(#paint0_linear_20_11514)"/>
<defs>
<linearGradient id="paint0_linear_20_11514" x1="53" y1="3" x2="-1.73202e-06" y2="28" gradientUnits="userSpaceOnUse">
<stop stop-color="#CCFF00"/>
<stop offset="1" stop-color="#12B151"/>
</linearGradient>
</defs>
</svg>
