<svg width="24" height="24" viewBox="0 0 24 24" fill="none" xmlns="http://www.w3.org/2000/svg">
<path d="M19.0761 4.92911C17.1889 3.04064 14.6804 2.00015 12.0105 1.99951C6.49829 1.99951 2.01523 6.48068 2.0127 11.989C2.01206 13.8769 2.54023 15.7147 3.54083 17.3061L3.77894 17.6842L2.76884 21.3706L6.55149 20.3789L6.9169 20.5955C8.45073 21.5061 10.21 21.9874 12.0035 21.9881H12.0073C17.5157 21.9881 21.9987 17.5063 22.0006 11.9973C22.0012 9.32795 20.9633 6.81759 19.0761 4.92911Z" fill="#40C351"/>
<path fill-rule="evenodd" clip-rule="evenodd" d="M9.00151 6.96378C8.77669 6.46348 8.53984 6.45335 8.32515 6.44448C8.14973 6.43688 7.94961 6.43751 7.74949 6.43751C7.54937 6.43751 7.22386 6.51287 6.94838 6.81369C6.6729 7.1145 5.89648 7.84089 5.89648 9.31899C5.89648 10.7971 6.97308 12.2258 7.12317 12.4259C7.27326 12.626 9.20163 15.7564 12.2554 16.9609C14.793 17.9615 15.3097 17.7627 15.8607 17.7126C16.4116 17.6626 17.6383 16.9862 17.8885 16.2845C18.1386 15.5829 18.1386 14.9819 18.0639 14.8565C17.9885 14.7311 17.7884 14.6564 17.4882 14.5056C17.1881 14.3549 15.7106 13.6285 15.4351 13.5285C15.1596 13.4284 14.9595 13.3784 14.7588 13.6792C14.5586 13.9794 13.983 14.6564 13.8076 14.8565C13.6321 15.0572 13.4567 15.0826 13.1565 14.9318C12.8563 14.7811 11.8887 14.4645 10.7405 13.4411C9.84759 12.645 9.24469 11.6615 9.06927 11.3607C8.89385 11.0605 9.05027 10.8978 9.201 10.7477C9.33589 10.6128 9.50118 10.3968 9.6519 10.2214C9.80199 10.046 9.85202 9.92061 9.95208 9.72049C10.0521 9.51974 10.0021 9.34432 9.92675 9.19423C9.85265 9.0435 9.26876 7.5578 9.00151 6.96378Z" fill="white"/>
</svg>
